<svg width="26" height="24" viewBox="0 0 26 24" fill="none" xmlns="http://www.w3.org/2000/svg">
<path d="M24.8021 9.65H23.8325V9.6002H12.9995V14.4002H19.8021C18.8096 17.1944 16.1429 19.2002 12.9995 19.2002C9.0112 19.2002 5.77755 15.9764 5.77755 12.0002C5.77755 8.02401 9.0112 4.80022 12.9995 4.80022C14.8405 4.80022 16.5154 5.49262 17.7907 6.62362L21.1953 3.22943C19.0455 1.23204 16.17 0.000244141 12.9995 0.000244141C6.3523 0.000244141 0.962891 5.37322 0.962891 12.0002C0.962891 18.6272 6.3523 24.0001 12.9995 24.0001C19.6468 24.0001 25.0362 18.6272 25.0362 12.0002C25.0362 11.1956 24.9531 10.4102 24.8021 9.65Z" fill="#FFC107"/>
<path d="M2.35034 6.41482L6.30498 9.30621C7.37504 6.66502 9.96653 4.80022 12.9992 4.80022C14.8402 4.80022 16.5151 5.49262 17.7904 6.62362L21.1949 3.22943C19.0452 1.23204 16.1696 0.000244141 12.9992 0.000244141C8.37589 0.000244141 4.36648 2.60243 2.35034 6.41482Z" fill="#FF3D00"/>
<path d="M13.0003 24.0007C16.1094 24.0007 18.9344 22.8145 21.0703 20.8855L17.3449 17.7427C16.0958 18.6897 14.5695 19.2019 13.0003 19.2007C9.86956 19.2007 7.21127 17.2105 6.20982 14.4331L2.28467 17.4481C4.27673 21.3343 8.32225 24.0007 13.0003 24.0007Z" fill="#4CAF50"/>
<path d="M24.8028 9.65087H23.8332V9.60107H13.0002V14.4011H19.8028C19.328 15.7309 18.4729 16.8929 17.3431 17.7436L17.3449 17.7424L21.0702 20.8852C20.8066 21.124 25.0369 18.001 25.0369 12.0011C25.0369 11.1965 24.9538 10.4111 24.8028 9.65087Z" fill="#1976D2"/>
</svg>
