<svg width="63" height="42" viewBox="0 0 63 42" fill="none" xmlns="http://www.w3.org/2000/svg">
<path fill-rule="evenodd" clip-rule="evenodd" d="M31.0014 0C48.1244 0 62.0028 9.39865 62.0028 21C62.0028 32.6013 48.1244 42 31.0014 42C13.8785 42 0 32.6013 0 21C0 9.39865 13.8785 0 31.0014 0Z" fill="#F5BF7D" stroke="#BB9341" stroke-width="1.0951"/>
<path fill-rule="evenodd" clip-rule="evenodd" d="M17.6514 14.831C17.629 14.3398 19.8987 14.5482 20.2112 14.6524C20.5833 14.7714 20.628 15.0765 20.6652 15.6272V18.2169C20.6652 19.2438 20.6577 19.4224 20.4568 19.4149C18.7304 19.4149 15.0691 19.028 15.0691 21.3423L15.0617 24.7877C15.0617 25.3607 15.3222 25.8668 15.6049 26.276C16.2449 27.2062 17.257 27.6676 18.2392 27.6676H21.3052V15.6644C21.32 14.2952 20.561 13.9975 19.6606 13.9454C19.0429 13.9082 17.8002 13.9008 17.1974 14.0347C15.9993 14.2952 15.5528 15.3891 15.5528 16.2449C15.5528 17.1602 16.2896 17.8969 17.2049 17.8969C18.1127 17.8969 18.7825 17.1974 18.8048 16.2449C18.8271 15.5379 18.269 15.0765 17.6514 14.831ZM19.735 20.04L19.7424 27.2583H19.4894L19.4969 20.04H19.735ZM20.6577 20.04L20.6652 27.2583H20.4122L20.4196 20.04H20.6577ZM18.8569 27.303C18.1574 27.2732 17.6439 26.8862 17.4058 26.529C17.3463 26.4323 17.19 26.1272 17.1751 26.023C17.1602 25.9561 17.1528 25.8668 17.1453 25.77C17.1007 25.1226 17.1305 23.9394 17.1379 23.2548C17.1528 21.7888 17.2198 21.0818 17.4951 20.6651C17.7853 20.2335 18.3583 20.04 18.8569 20.0177V27.303Z" fill="#52382B"/>
<path fill-rule="evenodd" clip-rule="evenodd" d="M9.42844 26.3505V15.2477C10.1726 15.3072 11.3037 15.6868 11.3037 16.4458C11.3335 19.7796 11.326 20.5535 11.2963 23.8873C11.2963 26.2909 12.6878 27.6006 14.9724 27.6527C14.4887 27.3551 13.5585 26.9756 13.5213 25.837V17.2792C13.5213 13.2906 13.6403 14.3101 9.62936 14.3101C8.37175 14.3101 7.7541 14.4738 6.95786 13.9454V27.6006L6.97274 27.5858L6.98018 27.5783L7.02483 27.5337L7.03227 27.5262L7.04715 27.5113L7.06948 27.4965L7.07692 27.4816L7.08436 27.4741L7.09924 27.4667L7.12157 27.4444L7.12901 27.4369L7.14389 27.422L7.15134 27.4146L7.1811 27.3848L7.19598 27.3774L7.20343 27.37L7.21087 27.3551L7.23319 27.3402L7.24807 27.3327L7.25552 27.3179L7.26296 27.3104L7.28528 27.2955L7.30017 27.2807L7.30761 27.2732L7.31505 27.2658L7.35226 27.2435L7.3597 27.2286L7.36714 27.2211L7.41179 27.1914L7.41923 27.1765L7.43411 27.169L7.449 27.1542L7.46388 27.1467L7.47132 27.1393L7.47876 27.1318L7.50109 27.1169L7.51597 27.1095L7.52341 27.1021L7.53085 27.0872L7.56062 27.0649L7.5755 27.0574L7.58294 27.05L7.62015 27.0202L7.63503 16.297L7.86572 16.163L7.8806 26.8416L7.90293 26.8342L7.91781 26.8193L7.9327 26.8118L7.94014 26.8044L7.95502 26.797L7.9699 26.7821L7.99967 26.7672L8.02199 26.7523L8.05176 26.7374L8.0592 26.73H8.06664H8.07408L8.08153 26.7225L8.10385 26.7077L8.11873 26.7002H8.12618L8.15594 26.6853V26.6779L8.17082 26.6705L8.20803 26.6556L8.21547 26.6481L8.25268 26.6332L8.26756 26.6258L8.30477 26.6035H8.31221H8.31966L8.34942 26.5886V26.5812H8.35686H8.3643L8.40151 26.5663L8.40895 26.5588H8.4164L8.42384 26.5514L8.44616 26.5439H8.4536L8.46104 26.5365H8.46849L8.49825 26.5216H8.50569L8.5429 26.5067H8.55034L8.55778 15.7612L8.79591 15.6272L8.80335 26.4249H8.8108L8.84056 26.4174L8.85545 26.41H8.86289L8.88521 26.4026H8.89265H8.90009H8.90754L8.92986 26.3951H8.9373H8.94474H8.95219C8.98195 26.3877 9.00428 26.3802 9.03404 26.3802L9.04148 26.3728H9.07869H9.08613L9.1159 26.3654H9.12334C9.13822 26.3654 9.15311 26.3654 9.16799 26.3579C9.18287 26.3579 9.19776 26.3579 9.2052 26.3579H9.22008L9.24985 26.3505H9.25729H9.26473H9.28705H9.2945H9.30194H9.30938H9.3317H9.33914H9.34659H9.35403H9.37635H9.38379H9.39124H9.421H9.42844Z" fill="#52382B"/>
<path fill-rule="evenodd" clip-rule="evenodd" d="M42.7442 14.831C42.7293 14.3398 44.9915 14.5482 45.3041 14.6449C45.6762 14.764 45.7208 15.0691 45.758 15.6198V18.2094C45.7655 19.2363 45.7506 19.4149 45.5571 19.4149C43.8232 19.4149 40.162 19.028 40.162 21.3423V24.7803C40.162 25.3607 40.4224 25.8668 40.6978 26.2686C41.3377 27.2062 42.3498 27.6676 43.3321 27.6676H46.4054V15.6644C46.4129 14.2952 45.6538 13.9901 44.7609 13.938C44.1432 13.9008 42.9005 13.9008 42.2977 14.0273C41.0996 14.2877 40.6457 15.3891 40.6457 16.2374C40.6457 17.1527 41.3898 17.8969 42.2977 17.8969C43.213 17.8969 43.8753 17.1899 43.9051 16.2374C43.9274 15.5379 43.3618 15.0691 42.7442 14.831ZM44.8278 20.0326L44.8353 27.2509H44.5823L44.5897 20.0326H44.8278ZM45.758 20.0326L45.7655 27.2509H45.5124V20.0326H45.758ZM43.9572 27.2955C43.2577 27.2732 42.7442 26.8788 42.5061 26.529C42.4391 26.4249 42.2903 26.1272 42.2679 26.023C42.2605 25.9486 42.2456 25.8668 42.2382 25.77C42.201 25.1152 42.2233 23.9394 42.2307 23.2548C42.2456 21.7888 42.32 21.0744 42.5954 20.6651C42.8781 20.2261 43.4586 20.04 43.9497 20.0103L43.9572 27.2955Z" fill="#52382B"/>
<path fill-rule="evenodd" clip-rule="evenodd" d="M49.7913 26.7821C49.7764 27.1244 50.8926 27.1244 51.6666 27.0574C51.741 27.0574 51.9419 27.0053 52.0014 26.9755C52.0312 26.9607 52.061 26.9383 52.1205 26.9011C52.2991 26.7746 52.4479 26.6258 52.5372 26.4844C52.6042 26.3877 52.7605 26.09 52.7753 25.9933C52.7902 25.9188 52.7977 25.837 52.8051 25.7403C52.8126 25.6658 52.8126 25.584 52.82 25.5021C52.82 24.6463 52.9614 21.4837 52.4554 20.7247C52.1279 20.241 51.5326 20.107 50.9894 20.0921C50.8778 20.0921 50.7736 20.0847 50.714 20.0847C50.0517 20.0475 49.516 19.8466 49.2778 19.2066C49.1067 18.7303 49.1513 18.4178 49.1439 17.8969L49.1141 15.7091C49.1141 15.4114 49.1067 15.3295 49.1662 15.0617C49.3522 14.191 50.0071 13.9752 50.7587 13.9305C51.3689 13.8933 52.6116 13.8859 53.2144 14.0198C54.4125 14.2803 54.8664 15.3742 54.8664 16.23C54.8664 17.1453 54.1223 17.882 53.2144 17.882C52.2991 17.882 51.6368 17.1825 51.607 16.23C51.5847 15.523 52.1503 15.0617 52.7679 14.8235C52.7902 14.3324 50.5206 14.5407 50.208 14.6375C49.9773 14.7119 49.8731 14.8533 49.8136 15.084C49.7541 15.3444 49.7541 15.4188 49.7541 15.7016V17.4429C49.7541 17.8969 49.6053 19.1694 50.1634 19.3405C50.1783 19.3405 50.1931 19.348 50.2155 19.3554C50.4461 19.4075 50.6768 19.4298 50.9075 19.4373C51.3689 19.467 51.8377 19.4819 52.2991 19.5266C53.6609 19.6531 54.8813 20.0772 54.8813 21.3944V24.7729C54.8813 25.3384 54.6283 25.837 54.3455 26.2314C54.1223 26.5588 53.8469 26.8267 53.5418 27.0351C53.0432 27.3774 52.4033 27.6378 51.8079 27.675C51.1903 27.7123 49.9476 27.7123 49.3448 27.5858C48.1467 27.3253 47.6928 26.224 47.6928 25.3756C47.6928 24.4603 48.4369 23.7162 49.3448 23.7162C50.2601 23.7162 50.9224 24.4231 50.9522 25.3756C50.9745 26.0751 50.4089 26.5439 49.7913 26.7821ZM53.6088 20.1889L53.6162 26.5365C53.5493 26.5886 53.4748 26.6481 53.4004 26.7002C53.3856 26.7077 53.3781 26.7151 53.3632 26.7225L53.3707 20.107C53.4525 20.1293 53.5344 20.1591 53.6088 20.1889ZM54.3529 21.1042L54.3604 25.0482C54.3157 25.2789 54.2264 25.5021 54.1074 25.703V20.613C54.1223 20.6354 54.1371 20.6502 54.152 20.6651C54.2562 20.7991 54.3232 20.9479 54.3529 21.1042Z" fill="#52382B"/>
<path fill-rule="evenodd" clip-rule="evenodd" d="M30.9642 16.0811V24.7356C30.9642 24.7505 30.9642 24.758 30.9642 24.7729C30.9642 24.7803 30.9642 24.7803 30.9642 24.7877C30.9642 25.3607 31.2247 25.8593 31.5 26.2612C32.073 27.0946 32.9362 27.5485 33.8143 27.6378C33.9185 27.6527 34.0227 27.6602 34.1343 27.6602H34.1567H36.4635H38.6141V15.6644V6.56343C38.6513 5.42488 39.7378 5.19419 40.0727 4.7477C37.9072 4.79235 36.5454 5.96811 36.404 8.14103C36.3593 8.89263 36.3817 9.77817 36.3817 10.5595V13.9901C36.0022 13.9901 34.5064 13.9901 34.4097 13.9901C32.78 14.0273 31.0312 14.3175 30.9642 15.8505C30.9642 15.9249 30.9642 16.0067 30.9642 16.0811ZM37.2672 14.5854L37.2747 27.2881H37.0216L37.0291 14.5854H37.2672ZM38.0114 14.5854L38.0188 27.2881H37.7658L37.7732 14.5854H38.0114ZM36.3817 14.6152C36.1361 14.6226 35.3919 14.6226 34.9008 14.6375C34.5511 14.6375 34.3799 14.63 34.0525 14.764C33.9334 14.8086 33.8218 14.8682 33.7176 14.9352C33.3158 15.2179 33.3232 15.4263 33.2711 15.8877C33.1 17.562 33.0404 22.0046 33.033 23.2325C33.0255 23.9171 33.0032 25.0928 33.0404 25.7477C33.0479 25.8444 33.0553 25.9263 33.0702 26.0007C33.0851 26.1049 33.2413 26.41 33.3083 26.5067C33.4423 26.7151 33.6804 26.9383 34.0004 27.0946C34.1715 27.1765 34.2906 27.1988 34.4841 27.2137C34.9827 27.2434 36.0766 27.2658 36.3966 27.2732C36.3891 23.0092 36.3891 18.8792 36.3817 14.6152Z" fill="#52382B"/>
<path fill-rule="evenodd" clip-rule="evenodd" d="M25.331 26.3505V15.2477C26.0751 15.3072 27.2062 15.6868 27.2062 16.4458C27.236 19.7796 27.2286 20.5535 27.1988 23.8873C27.1988 26.2909 28.5904 27.6006 30.8749 27.6527C30.3912 27.3551 29.461 26.9756 29.4238 25.837V17.2792C29.4238 13.2906 29.5503 14.3101 25.5319 14.3101C24.2743 14.3101 23.6566 14.4738 22.8604 13.9454V27.6006L22.8753 27.5858L22.8827 27.5783L22.9274 27.5337L22.9348 27.5262L22.9497 27.5113L22.972 27.4965L22.9794 27.4816L22.9943 27.4741L23.0018 27.4667L23.0241 27.4444L23.0315 27.4369L23.0464 27.422L23.0539 27.4146L23.0836 27.3848L23.0985 27.3774L23.106 27.37L23.1208 27.3551L23.1357 27.3402L23.1506 27.3327L23.158 27.3179L23.1729 27.3104L23.1878 27.2955L23.2027 27.2807L23.2101 27.2732L23.225 27.2658L23.2548 27.2435L23.2622 27.2286L23.2697 27.2211L23.3143 27.1914L23.3218 27.1765L23.3366 27.169L23.3515 27.1542L23.3664 27.1467L23.3738 27.1393L23.3887 27.1318L23.4036 27.1169L23.4185 27.1095L23.4259 27.1021L23.4334 27.0872L23.4631 27.0649L23.478 27.0574L23.4855 27.05L23.5227 27.0202L23.5376 16.297L23.7682 16.163L23.7831 26.8416L23.8055 26.8342L23.8203 26.8193L23.8352 26.8118L23.8427 26.8044L23.8575 26.797L23.8724 26.7821L23.9022 26.7672L23.9245 26.7523L23.9543 26.7374L23.9617 26.73H23.9692H23.9766L23.9841 26.7225L24.0064 26.7077L24.0287 26.7002L24.0585 26.6853V26.6779L24.0734 26.6705L24.1106 26.6556L24.118 26.6481L24.1552 26.6332L24.1701 26.6258L24.2073 26.6035H24.2147H24.2222L24.2519 26.5886V26.5812H24.2594H24.2668L24.304 26.5663L24.3189 26.5588L24.3264 26.5514L24.3487 26.5439H24.3561L24.3636 26.5365H24.371L24.4008 26.5216H24.4082L24.4529 26.5067L24.4603 15.7612L24.6984 15.6272L24.7059 26.4249H24.7133L24.7431 26.4174L24.758 26.41H24.7654L24.7877 26.4026H24.7952H24.8026H24.8101H24.8175L24.8398 26.3951H24.8473H24.8547C24.8845 26.3877 24.9068 26.3802 24.9366 26.3802L24.944 26.3728H24.9812H24.9887L25.0184 26.3654H25.0259C25.0408 26.3654 25.0556 26.3654 25.0705 26.3579C25.0854 26.3579 25.1003 26.3579 25.1077 26.3579H25.1226L25.1524 26.3505H25.1598H25.1673H25.1896H25.197H25.2045H25.2119H25.2342H25.2417H25.2491H25.2566H25.2789H25.2863H25.2938H25.3235H25.331Z" fill="#52382B"/>
<path d="M2.37393 29.0368H59.51" stroke="#BB9341" stroke-width="0.364965"/>
<path d="M6.26572 33.4943H55.5882" stroke="#BB9341" stroke-width="0.364965"/>
<path d="M8.05914 29.6322H9.05631C9.25723 29.6322 9.40606 29.6396 9.5028 29.6545C9.59954 29.6694 9.6814 29.7066 9.76325 29.7587C9.83767 29.8108 9.90464 29.8777 9.94929 29.967C10.0014 30.0489 10.0311 30.1531 10.0311 30.2573C10.0311 30.3763 10.0014 30.4805 9.93441 30.5772C9.87488 30.674 9.78558 30.7484 9.6814 30.7931C9.83023 30.8377 9.94929 30.9196 10.0311 31.0237C10.113 31.1279 10.1502 31.2544 10.1502 31.4033C10.1502 31.5149 10.1279 31.6265 10.0758 31.7307C10.0163 31.8423 9.94929 31.9242 9.85255 31.9911C9.76325 32.0507 9.65163 32.0953 9.51768 32.1102C9.43583 32.1176 9.23491 32.1251 8.90748 32.1251H8.05914V29.6322ZM8.56517 30.0415V30.6219H8.89259C9.09352 30.6219 9.21258 30.6145 9.26467 30.6145C9.34653 30.5996 9.4135 30.5698 9.46559 30.5252C9.51024 30.4731 9.54001 30.4061 9.54001 30.3317C9.54001 30.2498 9.51768 30.1903 9.47303 30.1382C9.42838 30.0935 9.36885 30.0638 9.287 30.0563C9.23491 30.0489 9.09352 30.0415 8.85539 30.0415H8.56517ZM8.56517 31.0312V31.7009H9.03398C9.21258 31.7009 9.33164 31.7009 9.37629 31.686C9.45071 31.6712 9.51768 31.6414 9.56233 31.5893C9.60698 31.5372 9.62931 31.4628 9.62931 31.3735C9.62931 31.2991 9.61442 31.2395 9.57722 31.1875C9.54001 31.1354 9.48792 31.0907 9.42094 31.0684C9.35397 31.0461 9.20514 31.0312 8.97445 31.0312H8.56517ZM12.5166 31.5521L12.9929 31.6339C12.9333 31.8051 12.8366 31.939 12.7027 32.0358C12.5762 32.1251 12.405 32.1697 12.2115 32.1697C11.8915 32.1697 11.6608 32.0656 11.512 31.8646C11.3929 31.6935 11.3334 31.4926 11.3334 31.2395C11.3334 30.9344 11.4078 30.7038 11.5641 30.5326C11.7204 30.3614 11.9213 30.2796 12.1594 30.2796C12.4273 30.2796 12.6431 30.3689 12.7994 30.5475C12.9482 30.7261 13.0226 30.994 13.0226 31.3586H11.8246C11.8246 31.5 11.8692 31.6116 11.9362 31.6935C12.0106 31.7753 12.1073 31.8125 12.2115 31.8125C12.2859 31.8125 12.3529 31.7902 12.405 31.753C12.4496 31.7084 12.4943 31.6414 12.5166 31.5521ZM12.5464 31.0684C12.5389 30.927 12.5092 30.8228 12.4348 30.7558C12.3678 30.6814 12.2859 30.6442 12.1892 30.6442C12.085 30.6442 12.0032 30.6814 11.9362 30.7558C11.8618 30.8377 11.832 30.9419 11.832 31.0684H12.5464ZM14.6672 30.8749L14.2356 30.8005C14.2803 30.6219 14.3621 30.4879 14.4812 30.4061C14.6002 30.3242 14.7788 30.2796 15.017 30.2796C15.2253 30.2796 15.3891 30.3019 15.4932 30.354C15.5974 30.4061 15.6718 30.4656 15.709 30.5475C15.7537 30.6219 15.776 30.7633 15.776 30.9716L15.7686 31.5298C15.7686 31.6935 15.776 31.8051 15.7909 31.8795C15.8058 31.9614 15.8355 32.0358 15.8728 32.1251H15.4039C15.3891 32.0953 15.3742 32.0432 15.3593 31.9837C15.3518 31.9539 15.3444 31.939 15.337 31.9316C15.2551 32.0135 15.1732 32.073 15.0765 32.1102C14.9872 32.1474 14.8905 32.1697 14.7788 32.1697C14.6002 32.1697 14.4514 32.1176 14.3398 32.0209C14.2356 31.9167 14.1835 31.7902 14.1835 31.6339C14.1835 31.5372 14.2058 31.4405 14.2579 31.3661C14.3026 31.2842 14.3696 31.2247 14.4589 31.18C14.5482 31.1354 14.6747 31.0982 14.8384 31.0684C15.0616 31.0237 15.2179 30.9865 15.3072 30.9493V30.9047C15.3072 30.8079 15.2849 30.741 15.2402 30.7038C15.1881 30.6665 15.1063 30.6442 14.9798 30.6442C14.8905 30.6442 14.8309 30.6591 14.7788 30.6963C14.7342 30.7261 14.697 30.7856 14.6672 30.8749ZM15.3072 31.2619C15.2477 31.2842 15.1435 31.3065 15.017 31.3363C14.883 31.3661 14.7937 31.3884 14.7565 31.4181C14.6895 31.4628 14.6598 31.5149 14.6598 31.5819C14.6598 31.6563 14.6821 31.7084 14.7342 31.7605C14.7863 31.8051 14.8458 31.8349 14.9277 31.8349C15.0095 31.8349 15.0914 31.8051 15.1732 31.7456C15.2328 31.7009 15.27 31.6488 15.2849 31.5893C15.2998 31.5446 15.3072 31.4702 15.3072 31.3586V31.2619ZM18.3433 32.1251V31.8572C18.2764 31.9539 18.1871 32.0283 18.0829 32.0879C17.9713 32.14 17.8596 32.1697 17.7406 32.1697C17.6215 32.1697 17.5099 32.14 17.4131 32.0879C17.3164 32.0358 17.2494 31.9614 17.2048 31.8646C17.1601 31.7679 17.1378 31.6339 17.1378 31.4628V30.3168H17.6141V31.1502C17.6141 31.4033 17.6215 31.5595 17.6438 31.6191C17.6587 31.6712 17.6885 31.7232 17.7406 31.753C17.7852 31.7902 17.8448 31.8051 17.9192 31.8051C18.001 31.8051 18.068 31.7828 18.135 31.7381C18.202 31.6935 18.2466 31.6339 18.2689 31.567C18.2912 31.5 18.3061 31.3437 18.3061 31.0833V30.3168H18.7824V32.1251H18.3433ZM21 30.3168V30.6963H20.6725V31.4256C20.6725 31.5744 20.6725 31.6637 20.68 31.686C20.6874 31.7158 20.7023 31.7307 20.7246 31.7456C20.747 31.7679 20.7693 31.7753 20.799 31.7753C20.8511 31.7753 20.9107 31.7605 20.9925 31.7307L21.0372 32.0953C20.9256 32.1474 20.799 32.1697 20.6577 32.1697C20.5758 32.1697 20.4939 32.1549 20.427 32.1251C20.36 32.0953 20.3079 32.0581 20.2781 32.0135C20.2409 31.9688 20.2186 31.9018 20.2112 31.8274C20.1963 31.7679 20.1888 31.6563 20.1888 31.4851V30.6963H19.973V30.3168H20.1888V29.9596L20.6725 29.6768V30.3168H21ZM22.2278 30.0712V29.6322H22.7041V30.0712H22.2278ZM22.2278 32.1251V30.3168H22.7041V32.1251H22.2278ZM23.8873 30.3168H24.1552V30.1828C24.1552 30.0266 24.1701 29.915 24.1998 29.8405C24.237 29.7661 24.2966 29.7066 24.3784 29.6545C24.4677 29.6098 24.5793 29.5875 24.7133 29.5875C24.8472 29.5875 24.9812 29.6024 25.1151 29.6471L25.0556 29.9819C24.9737 29.9596 24.8993 29.9522 24.8324 29.9522C24.7579 29.9522 24.7058 29.967 24.6761 29.9968C24.6463 30.034 24.6314 30.0935 24.6314 30.1903V30.3168H24.9886V30.6963H24.6314V32.1251H24.1552V30.6963H23.8873V30.3168ZM25.9263 30.3168H26.4323L26.8713 31.5967L27.2955 30.3168H27.7866L27.1467 32.0581L27.035 32.3707C26.9904 32.4748 26.9532 32.5567 26.916 32.6088C26.8788 32.6683 26.8341 32.713 26.782 32.7502C26.7299 32.7799 26.6704 32.8097 26.596 32.8246C26.529 32.8469 26.4472 32.8544 26.3579 32.8544C26.2611 32.8544 26.1718 32.8469 26.0825 32.8246L26.0379 32.4525C26.1197 32.4674 26.1867 32.4748 26.2462 32.4748C26.3579 32.4748 26.4397 32.4451 26.4918 32.3781C26.5439 32.3111 26.5886 32.2293 26.6183 32.1251L25.9263 30.3168ZM28.9922 30.0712V29.6322H29.4684V30.0712H28.9922ZM28.9922 32.1251V30.3168H29.4684V32.1251H28.9922ZM32.5046 32.1251H32.0283V31.2023C32.0283 31.0089 32.0134 30.8824 31.9985 30.8228C31.9762 30.7707 31.939 30.7261 31.8944 30.6889C31.8497 30.6591 31.7902 30.6442 31.7307 30.6442C31.6414 30.6442 31.5669 30.6665 31.5 30.7112C31.433 30.7558 31.3883 30.8154 31.366 30.8898C31.3437 30.9642 31.3288 31.1056 31.3288 31.3065V32.1251H30.8526V30.3168H31.2916V30.5847C31.4553 30.3763 31.6488 30.2796 31.8944 30.2796C31.9985 30.2796 32.0953 30.2945 32.1846 30.3317C32.2739 30.3763 32.3409 30.421 32.3855 30.4805C32.4302 30.54 32.4599 30.607 32.4748 30.6814C32.4971 30.7558 32.5046 30.86 32.5046 31.0014V32.1251ZM33.844 32.2367L34.3873 32.3037C34.3947 32.3707 34.417 32.4153 34.4468 32.4376C34.4989 32.4748 34.5659 32.4897 34.6626 32.4897C34.7891 32.4897 34.8859 32.4748 34.9454 32.4376C34.99 32.4079 35.0198 32.3707 35.0421 32.3111C35.057 32.2739 35.0645 32.1995 35.0645 32.0953V31.8274C34.9231 32.0283 34.737 32.1251 34.5212 32.1251C34.2831 32.1251 34.0896 32.0209 33.9482 31.82C33.8366 31.6563 33.7771 31.4553 33.7771 31.2098C33.7771 30.9121 33.8515 30.6814 34.0003 30.5177C34.1417 30.3614 34.3277 30.2796 34.5436 30.2796C34.7668 30.2796 34.9528 30.3763 35.0942 30.5698V30.3168H35.5407V31.939C35.5407 32.1474 35.5258 32.3111 35.4886 32.4153C35.4514 32.5195 35.4068 32.6013 35.3398 32.6609C35.2728 32.7204 35.191 32.7725 35.0868 32.8023C34.9826 32.8395 34.8487 32.8544 34.6849 32.8544C34.3798 32.8544 34.1566 32.8023 34.0301 32.6981C33.9036 32.5939 33.8366 32.46 33.8366 32.2962C33.8366 32.2814 33.8366 32.259 33.844 32.2367ZM34.2682 31.1875C34.2682 31.3735 34.3054 31.5149 34.3798 31.6042C34.4543 31.6935 34.5436 31.7381 34.6552 31.7381C34.7742 31.7381 34.871 31.6935 34.9528 31.6042C35.0273 31.5074 35.0719 31.3735 35.0719 31.1949C35.0719 31.0089 35.0347 30.8675 34.9528 30.7782C34.8784 30.6889 34.7817 30.6442 34.6626 30.6442C34.551 30.6442 34.4543 30.6889 34.3798 30.7782C34.3054 30.8675 34.2682 31.0014 34.2682 31.1875ZM37.7509 31.314L38.242 31.2693C38.2718 31.433 38.3313 31.5521 38.4206 31.6265C38.5099 31.7084 38.6364 31.7456 38.7852 31.7456C38.9489 31.7456 39.068 31.7084 39.1499 31.6414C39.2317 31.5744 39.2764 31.4926 39.2764 31.4033C39.2764 31.3437 39.254 31.2916 39.2243 31.2544C39.1871 31.2098 39.1275 31.1726 39.0382 31.1428C38.9861 31.1205 38.8522 31.0833 38.6438 31.0312C38.3685 30.9642 38.1825 30.8824 38.0708 30.7856C37.922 30.6517 37.8476 30.4805 37.8476 30.2796C37.8476 30.1531 37.8848 30.034 37.9518 29.9224C38.0262 29.8182 38.1304 29.7289 38.2643 29.6694C38.3983 29.6173 38.562 29.5875 38.7555 29.5875C39.068 29.5875 39.2987 29.6545 39.455 29.7959C39.6187 29.9298 39.7005 30.1159 39.708 30.3466L39.202 30.3689C39.1796 30.2349 39.135 30.1456 39.0606 30.0861C38.9936 30.034 38.8894 30.0043 38.748 30.0043C38.5992 30.0043 38.4876 30.034 38.4057 30.0935C38.3536 30.1308 38.3238 30.1828 38.3238 30.2498C38.3238 30.3094 38.3536 30.3614 38.3983 30.3987C38.4652 30.4582 38.6215 30.5103 38.8596 30.5698C39.1052 30.6293 39.2912 30.6889 39.4029 30.7484C39.5219 30.8079 39.6112 30.8972 39.6782 31.0014C39.7452 31.1056 39.7824 31.2395 39.7824 31.3958C39.7824 31.5446 39.7377 31.6786 39.6633 31.7977C39.5815 31.9242 39.4698 32.0209 39.321 32.0804C39.1796 32.14 38.9936 32.1697 38.7778 32.1697C38.4652 32.1697 38.2197 32.0953 38.056 31.9539C37.8848 31.8051 37.7881 31.5967 37.7509 31.314ZM41.0921 30.3168H41.5312V30.5847C41.5907 30.4879 41.6725 30.421 41.7693 30.3614C41.866 30.3094 41.9776 30.2796 42.0967 30.2796C42.3051 30.2796 42.4837 30.3614 42.6325 30.5252C42.7813 30.6889 42.8483 30.9196 42.8483 31.2172C42.8483 31.5149 42.7813 31.753 42.6325 31.9167C42.4837 32.0879 42.3051 32.1697 42.0967 32.1697C41.9925 32.1697 41.9032 32.1474 41.8214 32.1102C41.7395 32.073 41.6577 32.006 41.5684 31.9093V32.8097H41.0921V30.3168ZM41.5609 31.1949C41.5609 31.3958 41.5981 31.5446 41.68 31.6414C41.7618 31.7381 41.8586 31.7902 41.9702 31.7902C42.0818 31.7902 42.1786 31.7456 42.253 31.6563C42.3274 31.567 42.3572 31.4181 42.3572 31.2172C42.3572 31.0237 42.32 30.8824 42.2455 30.7931C42.1711 30.7038 42.0744 30.6517 41.9628 30.6517C41.8511 30.6517 41.7544 30.6963 41.6725 30.7931C41.5981 30.8824 41.5609 31.0163 41.5609 31.1949ZM44.4854 30.8749L44.0538 30.8005C44.0985 30.6219 44.1878 30.4879 44.3068 30.4061C44.4259 30.3242 44.6045 30.2796 44.8352 30.2796C45.051 30.2796 45.2073 30.3019 45.3114 30.354C45.4156 30.4061 45.49 30.4656 45.5347 30.5475C45.5719 30.6219 45.5942 30.7633 45.5942 30.9716L45.5868 31.5298C45.5868 31.6935 45.5942 31.8051 45.6091 31.8795C45.624 31.9614 45.6538 32.0358 45.6984 32.1251H45.2221C45.2147 32.0953 45.1924 32.0432 45.1775 31.9837C45.1701 31.9539 45.1626 31.939 45.1626 31.9316C45.0808 32.0135 44.9915 32.073 44.9022 32.1102C44.8054 32.1474 44.7087 32.1697 44.6045 32.1697C44.4185 32.1697 44.2696 32.1176 44.1655 32.0209C44.0613 31.9167 44.0017 31.7902 44.0017 31.6339C44.0017 31.5372 44.0315 31.4405 44.0762 31.3661C44.1282 31.2842 44.1952 31.2247 44.2845 31.18C44.3664 31.1354 44.4929 31.0982 44.664 31.0684C44.8873 31.0237 45.0436 30.9865 45.1254 30.9493V30.9047C45.1254 30.8079 45.1031 30.741 45.0584 30.7038C45.0138 30.6665 44.9245 30.6442 44.798 30.6442C44.7161 30.6442 44.6492 30.6591 44.6045 30.6963C44.5524 30.7261 44.5152 30.7856 44.4854 30.8749ZM45.1254 31.2619C45.0659 31.2842 44.9691 31.3065 44.8352 31.3363C44.7012 31.3661 44.6119 31.3884 44.5747 31.4181C44.5152 31.4628 44.478 31.5149 44.478 31.5819C44.478 31.6563 44.5078 31.7084 44.5599 31.7605C44.6045 31.8051 44.6715 31.8349 44.7459 31.8349C44.8352 31.8349 44.917 31.8051 44.9915 31.7456C45.051 31.7009 45.0882 31.6488 45.1105 31.5893C45.118 31.5446 45.1254 31.4702 45.1254 31.3586V31.2619ZM48.5411 30.8526L48.0723 30.9344C48.0574 30.8451 48.0202 30.7707 47.9606 30.7261C47.9085 30.6814 47.8341 30.6517 47.7448 30.6517C47.6258 30.6517 47.529 30.6963 47.462 30.7782C47.3876 30.86 47.3504 31.0014 47.3504 31.1949C47.3504 31.4033 47.3876 31.5595 47.462 31.6488C47.529 31.7381 47.6258 31.7828 47.7523 31.7828C47.8416 31.7828 47.916 31.753 47.9755 31.7009C48.0276 31.6488 48.0723 31.5595 48.0946 31.433L48.5634 31.5149C48.5187 31.7307 48.422 31.8944 48.2881 32.006C48.1467 32.1176 47.9606 32.1697 47.7299 32.1697C47.462 32.1697 47.2537 32.0879 47.0974 31.9167C46.9411 31.753 46.8593 31.5223 46.8593 31.2247C46.8593 30.927 46.9411 30.6963 47.0974 30.5252C47.2537 30.3614 47.4695 30.2796 47.7374 30.2796C47.9532 30.2796 48.1318 30.3242 48.2583 30.421C48.3922 30.5177 48.4815 30.6591 48.5411 30.8526ZM50.8479 31.5521L51.3242 31.6339C51.2647 31.8051 51.1679 31.939 51.034 32.0358C50.9 32.1251 50.7363 32.1697 50.5354 32.1697C50.2229 32.1697 49.9922 32.0656 49.8433 31.8646C49.7243 31.6935 49.6647 31.4926 49.6647 31.2395C49.6647 30.9344 49.7392 30.7038 49.8954 30.5326C50.0517 30.3614 50.2526 30.2796 50.4908 30.2796C50.7586 30.2796 50.9745 30.3689 51.1233 30.5475C51.2796 30.7261 51.354 30.994 51.3465 31.3586H50.1559C50.1559 31.5 50.1931 31.6116 50.2675 31.6935C50.3419 31.7753 50.4312 31.8125 50.5428 31.8125C50.6173 31.8125 50.6842 31.7902 50.7289 31.753C50.781 31.7084 50.8182 31.6414 50.8479 31.5521ZM50.8777 31.0684C50.8703 30.927 50.8331 30.8228 50.7661 30.7558C50.6991 30.6814 50.6173 30.6442 50.5205 30.6442C50.4163 30.6442 50.327 30.6814 50.2601 30.7558C50.1931 30.8377 50.1633 30.9419 50.1633 31.0684H50.8777ZM52.4702 31.6191L52.9465 31.5446C52.9688 31.6339 53.0134 31.7084 53.073 31.753C53.1325 31.7977 53.2218 31.8274 53.3334 31.8274C53.4599 31.8274 53.5492 31.8051 53.6162 31.7605C53.6534 31.7232 53.6757 31.6786 53.6757 31.6265C53.6757 31.5893 53.6683 31.5595 53.6385 31.5372C53.6162 31.5149 53.5641 31.4926 53.4822 31.4777C53.0953 31.3884 52.8497 31.314 52.7455 31.2395C52.6041 31.1428 52.5372 31.0089 52.5372 30.8377C52.5372 30.674 52.5967 30.5475 52.7232 30.4359C52.8423 30.3317 53.0358 30.2796 53.2962 30.2796C53.5418 30.2796 53.7278 30.3168 53.8469 30.3987C53.9659 30.4805 54.0478 30.5996 54.0925 30.7558L53.646 30.8451C53.6236 30.7707 53.5864 30.7186 53.5343 30.6814C53.4822 30.6442 53.4004 30.6219 53.3036 30.6219C53.1771 30.6219 53.0878 30.6442 53.0283 30.674C52.9911 30.7038 52.9762 30.7335 52.9762 30.7707C52.9762 30.8079 52.9911 30.8377 53.0209 30.86C53.0655 30.8898 53.2144 30.9344 53.4748 30.994C53.7278 31.0535 53.9064 31.1205 54.0032 31.2098C54.1073 31.2916 54.1594 31.4107 54.1594 31.567C54.1594 31.7307 54.085 31.8721 53.9511 31.9911C53.8097 32.1102 53.6088 32.1697 53.3334 32.1697C53.0878 32.1697 52.8944 32.1176 52.753 32.0209C52.6041 31.9242 52.5149 31.7902 52.4702 31.6191Z" fill="#52382B"/>
<path d="M29.7587 0.0223236C27.4667 0.267894 25.9412 0.915307 24.9069 1.80829C23.3293 3.15521 22.4288 5.65556 22.9349 7.69454C23.6641 10.6191 26.4547 12.5315 29.3495 12.539C31.9019 12.5539 34.0897 11.1995 34.499 8.58008C34.752 6.97271 34.112 5.3579 32.6609 4.36818C31.2619 3.41566 29.6025 3.74309 28.7541 5.06024C27.8686 6.45925 29.4908 8.43125 30.8824 7.54571C31.9093 6.89086 31.4182 5.78207 30.5029 5.32069" stroke="#BB9341" stroke-width="0.730033"/>
<path fill-rule="evenodd" clip-rule="evenodd" d="M30.5103 5.09743C30.6368 5.09743 30.741 5.20161 30.741 5.32811C30.741 5.45462 30.6368 5.55136 30.5103 5.55136C30.3912 5.55136 30.287 5.45462 30.287 5.32811C30.287 5.20161 30.3912 5.09743 30.5103 5.09743Z" fill="#BB9341" stroke="#BB9341" stroke-width="0.182534"/>
</svg>
